<svg width="20" height="20" viewBox="0 0 20 20" fill="none" xmlns="http://www.w3.org/2000/svg">
<path d="M14.4498 4.5513C14.2521 4.5513 14.0587 4.60995 13.8943 4.71983C13.7298 4.82971 13.6016 4.98589 13.526 5.16862C13.4503 5.35135 13.4305 5.55241 13.4691 5.74639C13.5076 5.94037 13.6029 6.11856 13.7427 6.25841C13.8826 6.39826 14.0608 6.4935 14.2547 6.53209C14.4487 6.57067 14.6498 6.55087 14.8325 6.47518C15.0152 6.39949 15.1714 6.27132 15.2813 6.10687C15.3912 5.94242 15.4498 5.74908 15.4498 5.5513C15.4498 5.28609 15.3445 5.03173 15.1569 4.8442C14.9694 4.65666 14.7151 4.5513 14.4498 4.5513ZM18.2832 6.56797C18.267 5.87655 18.1375 5.19247 17.8998 4.54297C17.6879 3.98725 17.3582 3.48403 16.9332 3.06797C16.5205 2.64082 16.0161 2.31312 15.4582 2.10964C14.8104 1.86477 14.1255 1.73231 13.4332 1.71797C12.5498 1.66797 12.2665 1.66797 9.99984 1.66797C7.73317 1.66797 7.44984 1.66797 6.5665 1.71797C5.87413 1.73231 5.18929 1.86477 4.5415 2.10964C3.98457 2.31518 3.48062 2.6426 3.0665 3.06797C2.63936 3.48062 2.31165 3.985 2.10817 4.54297C1.8633 5.19075 1.73085 5.8756 1.7165 6.56797C1.6665 7.4513 1.6665 7.73464 1.6665 10.0013C1.6665 12.268 1.6665 12.5513 1.7165 13.4346C1.73085 14.127 1.8633 14.8118 2.10817 15.4596C2.31165 16.0176 2.63936 16.522 3.0665 16.9346C3.48062 17.36 3.98457 17.6874 4.5415 17.893C5.18929 18.1378 5.87413 18.2703 6.5665 18.2846C7.44984 18.3346 7.73317 18.3346 9.99984 18.3346C12.2665 18.3346 12.5498 18.3346 13.4332 18.2846C14.1255 18.2703 14.8104 18.1378 15.4582 17.893C16.0161 17.6895 16.5205 17.3618 16.9332 16.9346C17.36 16.5201 17.6901 16.0165 17.8998 15.4596C18.1375 14.8101 18.267 14.1261 18.2832 13.4346C18.2832 12.5513 18.3332 12.268 18.3332 10.0013C18.3332 7.73464 18.3332 7.4513 18.2832 6.56797ZM16.7832 13.3346C16.7771 13.8636 16.6813 14.3877 16.4998 14.8846C16.3668 15.2473 16.1531 15.575 15.8748 15.843C15.6045 16.1184 15.2775 16.3317 14.9165 16.468C14.4196 16.6494 13.8955 16.7452 13.3665 16.7513C12.5332 16.793 12.2248 16.8013 10.0332 16.8013C7.8415 16.8013 7.53317 16.8013 6.69984 16.7513C6.15058 16.7616 5.60367 16.677 5.08317 16.5013C4.73799 16.358 4.42597 16.1453 4.1665 15.8763C3.88991 15.6086 3.67887 15.2806 3.54984 14.918C3.34638 14.4139 3.23354 13.8779 3.2165 13.3346C3.2165 12.5013 3.1665 12.193 3.1665 10.0013C3.1665 7.80964 3.1665 7.5013 3.2165 6.66797C3.22024 6.12718 3.31896 5.59126 3.50817 5.08464C3.65488 4.73289 3.88006 4.41935 4.1665 4.16797C4.41968 3.88144 4.73258 3.65388 5.08317 3.5013C5.59113 3.31801 6.1265 3.2222 6.6665 3.21797C7.49984 3.21797 7.80817 3.16797 9.99984 3.16797C12.1915 3.16797 12.4998 3.16797 13.3332 3.21797C13.8621 3.22404 14.3863 3.31984 14.8832 3.5013C15.2619 3.64185 15.6017 3.87034 15.8748 4.16797C16.1479 4.42395 16.3613 4.73691 16.4998 5.08464C16.685 5.59208 16.7809 6.12779 16.7832 6.66797C16.8248 7.5013 16.8332 7.80964 16.8332 10.0013C16.8332 12.193 16.8248 12.5013 16.7832 13.3346ZM9.99984 5.7263C9.15468 5.72795 8.32897 5.98007 7.62705 6.45082C6.92513 6.92156 6.37849 7.5898 6.0562 8.3711C5.73391 9.15239 5.65044 10.0117 5.81633 10.8404C5.98222 11.6691 6.39003 12.4301 6.98823 13.0271C7.58643 13.6242 8.34818 14.0305 9.17722 14.1948C10.0063 14.359 10.8654 14.2739 11.6461 13.9501C12.4267 13.6263 13.0939 13.0783 13.5633 12.3755C14.0327 11.6727 14.2832 10.8465 14.2832 10.0013C14.2843 9.43889 14.1742 8.88181 13.9592 8.3621C13.7442 7.84239 13.4286 7.37031 13.0306 6.97301C12.6325 6.57571 12.1598 6.26103 11.6397 6.04708C11.1195 5.83312 10.5622 5.7241 9.99984 5.7263ZM9.99984 12.7763C9.45099 12.7763 8.91448 12.6136 8.45813 12.3086C8.00178 12.0037 7.6461 11.5703 7.43607 11.0632C7.22604 10.5562 7.17108 9.99822 7.27816 9.45993C7.38523 8.92163 7.64953 8.42717 8.03762 8.03908C8.42571 7.65099 8.92016 7.3867 9.45846 7.27962C9.99676 7.17255 10.5547 7.2275 11.0618 7.43754C11.5688 7.64757 12.0022 8.00325 12.3072 8.45959C12.6121 8.91594 12.7748 9.45246 12.7748 10.0013C12.7748 10.3657 12.7031 10.7266 12.5636 11.0632C12.4241 11.3999 12.2197 11.7058 11.9621 11.9635C11.7044 12.2212 11.3985 12.4256 11.0618 12.5651C10.7251 12.7045 10.3643 12.7763 9.99984 12.7763Z" fill="black"/>
</svg>
