<svg width="20" height="20" viewBox="0 0 20 20" fill="none" xmlns="http://www.w3.org/2000/svg">
<path d="M17.0585 1.66809H2.9418C2.78311 1.66588 2.62555 1.69496 2.4781 1.75366C2.33066 1.81235 2.19622 1.89952 2.08246 2.01018C1.96871 2.12084 1.87786 2.25282 1.81512 2.39859C1.75238 2.54436 1.71897 2.70107 1.7168 2.85975V17.1431C1.71897 17.3018 1.75238 17.4585 1.81512 17.6042C1.87786 17.75 1.96871 17.882 2.08246 17.9927C2.19622 18.1033 2.33066 18.1905 2.4781 18.2492C2.62555 18.3079 2.78311 18.337 2.9418 18.3348H17.0585C17.2171 18.337 17.3747 18.3079 17.5222 18.2492C17.6696 18.1905 17.804 18.1033 17.9178 17.9927C18.0316 17.882 18.1224 17.75 18.1851 17.6042C18.2479 17.4585 18.2813 17.3018 18.2835 17.1431V2.85975C18.2813 2.70107 18.2479 2.54436 18.1851 2.39859C18.1224 2.25282 18.0316 2.12084 17.9178 2.01018C17.804 1.89952 17.6696 1.81235 17.5222 1.75366C17.3747 1.69496 17.2171 1.66588 17.0585 1.66809ZM6.7418 15.6181H4.2418V8.11809H6.7418V15.6181ZM5.4918 7.06809C5.14702 7.06809 4.81636 6.93112 4.57256 6.68732C4.32876 6.44353 4.1918 6.11287 4.1918 5.76809C4.1918 5.4233 4.32876 5.09264 4.57256 4.84885C4.81636 4.60505 5.14702 4.46809 5.4918 4.46809C5.67488 4.44732 5.86028 4.46546 6.03586 4.52132C6.21144 4.57718 6.37325 4.66949 6.51068 4.79222C6.64811 4.91495 6.75807 5.06532 6.83336 5.23349C6.90864 5.40166 6.94756 5.58383 6.94756 5.76809C6.94756 5.95234 6.90864 6.13451 6.83336 6.30268C6.75807 6.47085 6.64811 6.62122 6.51068 6.74395C6.37325 6.86668 6.21144 6.95899 6.03586 7.01485C5.86028 7.07071 5.67488 7.08885 5.4918 7.06809ZM15.7585 15.6181H13.2585V11.5931C13.2585 10.5848 12.9001 9.92642 11.9918 9.92642C11.7107 9.92848 11.437 10.0167 11.2075 10.1791C10.978 10.3415 10.8039 10.5703 10.7085 10.8348C10.6433 11.0306 10.615 11.2369 10.6251 11.4431V15.6098H8.12513C8.12513 15.6098 8.12513 8.79309 8.12513 8.10975H10.6251V9.16809C10.8522 8.77401 11.1826 8.44935 11.5805 8.22909C11.9784 8.00882 12.4289 7.9013 12.8835 7.91809C14.5501 7.91809 15.7585 8.99309 15.7585 11.3014V15.6181Z" fill="black"/>
</svg>
