<svg width="20" height="20" viewBox="0 0 20 20" fill="none" xmlns="http://www.w3.org/2000/svg">
<path d="M18.3332 4.83253C17.7068 5.10428 17.0444 5.28392 16.3665 5.36586C17.0816 4.93863 17.6176 4.26652 17.8748 3.4742C17.2028 3.87425 16.4671 4.15611 15.6998 4.30753C15.187 3.75134 14.504 3.38111 13.758 3.25491C13.012 3.1287 12.2453 3.25366 11.578 3.61019C10.9107 3.96672 10.3806 4.53464 10.0709 5.2249C9.76113 5.91515 9.68925 6.68869 9.8665 7.4242C8.50769 7.35547 7.17854 7.00166 5.96538 6.38575C4.75223 5.76984 3.68221 4.90561 2.82484 3.8492C2.52412 4.37434 2.3661 4.96905 2.3665 5.5742C2.36544 6.13618 2.50335 6.68971 2.76797 7.1855C3.03258 7.68129 3.41569 8.10396 3.88317 8.41586C3.33982 8.40108 2.80808 8.25528 2.33317 7.99086V8.03253C2.33724 8.81994 2.61317 9.58178 3.11427 10.1892C3.61537 10.7966 4.31088 11.2122 5.08317 11.3659C4.78588 11.4563 4.47723 11.504 4.1665 11.5075C3.95141 11.505 3.73686 11.4855 3.52484 11.4492C3.74476 12.1265 4.17036 12.7185 4.7424 13.1427C5.31444 13.5668 6.00448 13.8022 6.7165 13.8159C5.51417 14.7619 4.02974 15.2782 2.49984 15.2825C2.22128 15.2834 1.94295 15.2667 1.6665 15.2325C3.22853 16.2411 5.04885 16.7765 6.90817 16.7742C8.19125 16.7875 9.46412 16.545 10.6524 16.0609C11.8408 15.5768 12.9207 14.8608 13.8292 13.9546C14.7377 13.0485 15.4565 11.9704 15.9436 10.7833C16.4308 9.59622 16.6765 8.32397 16.6665 7.04086C16.6665 6.8992 16.6665 6.7492 16.6665 6.5992C17.3204 6.11154 17.8844 5.51372 18.3332 4.83253Z" fill="black"/>
</svg>
