<svg width="16" height="16" viewBox="0 0 16 16" fill="none" xmlns="http://www.w3.org/2000/svg">
<path d="M8 14C11.3137 14 14 11.3137 14 8C14 4.68629 11.3137 2 8 2C4.68629 2 2 4.68629 2 8C2 11.3137 4.68629 14 8 14Z" stroke="black" stroke-miterlimit="10"/>
<path d="M2.3418 6H13.6584" stroke="black" stroke-linecap="round" stroke-linejoin="round"/>
<path d="M2.3418 10H13.6583" stroke="black" stroke-linecap="round" stroke-linejoin="round"/>
<path d="M8 13.838C9.38071 13.838 10.5 11.2238 10.5 7.99909C10.5 4.77434 9.38071 2.16016 8 2.16016C6.61929 2.16016 5.5 4.77434 5.5 7.99909C5.5 11.2238 6.61929 13.838 8 13.838Z" stroke="black" stroke-miterlimit="10"/>
</svg>
