<svg width="1280" height="469" viewBox="0 0 1280 469" fill="none" xmlns="http://www.w3.org/2000/svg">
<path opacity="0.24" d="M1098.16 -538.954C1072.36 -516.595 1031.36 -448.214 1073.71 -353.567C1126.65 -235.257 1247.74 -196.985 1316.41 -92.9852C1367.09 -16.2257 1449.8 194.007 1383.66 323.352" stroke="url(#paint0_linear_7951_607)"/>
<path opacity="0.24" d="M1067.45 -497.61C1041.65 -475.251 1000.65 -406.87 1043 -312.223C1095.94 -193.914 1217.03 -155.641 1285.7 -51.6415C1336.38 25.118 1419.09 235.351 1352.95 364.696" stroke="url(#paint1_linear_7951_607)"/>
<path opacity="0.24" d="M1035.69 -457.06C1009.9 -434.7 968.9 -366.32 1011.25 -271.672C1064.19 -153.363 1185.28 -115.09 1253.95 -11.0907C1304.63 65.6688 1387.34 275.902 1321.2 405.247" stroke="url(#paint2_linear_7951_607)"/>
<path opacity="0.24" d="M1002.94 -417.31C977.147 -394.95 936.146 -326.57 978.496 -231.922C1031.43 -113.613 1152.53 -75.3404 1221.19 28.6593C1271.87 105.419 1354.58 315.652 1288.44 444.997" stroke="url(#paint3_linear_7951_607)"/>
<path opacity="0.24" d="M969.179 -378.415C943.385 -356.056 902.384 -287.675 944.734 -193.028C997.671 -74.7184 1118.76 -36.4458 1187.43 67.5538C1238.11 144.313 1320.82 354.547 1254.68 483.891" stroke="url(#paint4_linear_7951_607)"/>
<path opacity="0.24" d="M934.375 -340.454C908.58 -318.095 867.58 -249.714 909.929 -155.067C962.866 -36.7575 1083.96 1.51512 1152.63 105.515C1203.31 182.274 1286.02 392.507 1219.88 521.852" stroke="url(#paint5_linear_7951_607)"/>
<path opacity="0.24" d="M898.468 -303.525C872.674 -281.165 831.673 -212.784 874.023 -118.137C926.96 0.172225 1048.05 38.4448 1116.72 142.444C1167.4 219.204 1250.11 429.437 1183.97 558.782" stroke="url(#paint6_linear_7951_607)"/>
<path opacity="0.24" d="M861.39 -267.778C835.596 -245.419 794.595 -177.038 836.945 -82.391C889.882 35.9183 1010.98 74.1909 1079.64 178.191C1130.32 254.95 1213.03 465.183 1146.89 594.528" stroke="url(#paint7_linear_7951_607)"/>
<path opacity="0.24" d="M823.05 -233.384C797.256 -211.025 756.255 -142.644 798.605 -47.9964C851.542 70.3129 972.636 108.585 1041.3 212.585C1091.98 289.345 1174.69 499.578 1108.55 628.922" stroke="url(#paint8_linear_7951_607)"/>
<path opacity="0.24" d="M783.345 -200.579C757.551 -178.22 716.55 -109.839 758.9 -15.1918C811.837 103.118 932.931 141.39 1001.6 245.39C1052.28 322.149 1134.99 532.382 1068.85 661.727" stroke="url(#paint9_linear_7951_607)"/>
<path opacity="0.24" d="M742.156 -169.661C716.362 -147.302 675.361 -78.9212 717.711 15.7262C770.648 134.036 891.741 172.308 960.407 276.308C1011.09 353.067 1093.8 563.3 1027.66 692.645" stroke="url(#paint10_linear_7951_607)"/>
<path opacity="0.24" d="M699.355 -141.013C673.561 -118.653 632.56 -50.2728 674.91 44.3747C727.847 162.684 848.94 200.957 917.606 304.956C968.286 381.716 1051 591.949 984.858 721.293" stroke="url(#paint11_linear_7951_607)"/>
<path opacity="0.24" d="M654.818 -115.142C629.024 -92.7823 588.023 -24.4017 630.373 70.2457C683.31 188.555 804.403 226.828 873.069 330.827C923.749 407.587 1006.46 617.82 940.32 747.164" stroke="url(#paint12_linear_7951_607)"/>
<path opacity="0.24" d="M608.457 -92.7121C582.662 -70.3527 541.662 -1.972 584.011 92.6754C636.948 210.985 758.042 249.257 826.708 353.257C877.388 430.016 960.097 640.25 893.959 769.594" stroke="url(#paint13_linear_7951_607)"/>
<path opacity="0.24" d="M560.25 -74.5714C534.455 -52.212 493.455 16.1686 535.804 110.816C588.741 229.125 709.835 267.398 778.5 371.398C829.181 448.157 911.89 658.39 845.752 787.735" stroke="url(#paint14_linear_7951_607)"/>
<path opacity="0.24" d="M510.363 -61.7746C484.569 -39.4152 443.568 28.9655 485.918 123.613C538.855 241.922 659.948 280.195 728.614 384.194C779.294 460.954 862.004 671.187 795.865 800.532" stroke="url(#paint15_linear_7951_607)"/>
<path opacity="0.24" d="M459.238 -55.5167C433.444 -33.1573 392.443 35.2233 434.793 129.871C487.73 248.18 608.823 286.453 677.489 390.452C728.169 467.212 810.879 677.445 744.74 806.789" stroke="url(#paint16_linear_7951_607)"/>
<path opacity="0.24" d="M398.464 -57.0597C372.67 -34.7003 331.67 33.6803 374.019 128.328C426.956 246.637 548.05 284.91 616.715 388.909C667.396 465.669 750.105 675.902 683.967 805.247" stroke="url(#paint17_linear_7951_607)"/>
<path opacity="0.24" d="M346.959 -56.9855C321.164 -34.6261 280.164 33.7546 322.513 128.402C375.45 246.711 496.544 284.984 565.209 388.984C615.89 465.743 698.599 675.976 632.461 805.321" stroke="url(#paint18_linear_7951_607)"/>
<path opacity="0.24" d="M295.636 -52.6613C269.842 -30.3019 228.841 38.0788 271.191 132.726C324.128 251.036 445.222 289.308 513.887 393.308C564.568 470.067 647.277 680.3 581.139 809.645" stroke="url(#paint19_linear_7951_607)"/>
<path opacity="0.24" d="M244.845 -44.1183C219.051 -21.7589 178.05 46.6218 220.4 141.269C273.337 259.578 394.431 297.851 463.096 401.851C513.777 478.61 596.486 688.843 530.348 818.188" stroke="url(#paint20_linear_7951_607)"/>
<path opacity="0.24" d="M194.91 -31.5011C169.116 -9.14172 128.115 59.2389 170.464 153.886C223.402 272.196 344.495 310.468 413.161 414.468C463.841 491.227 546.551 701.461 480.412 830.805" stroke="url(#paint21_linear_7951_607)"/>
<path opacity="0.24" d="M146.119 -15.0089C120.325 7.35047 79.3238 75.7311 121.673 170.379C174.611 288.688 295.704 326.96 364.37 430.96C415.05 507.72 497.76 717.953 431.621 847.297" stroke="url(#paint22_linear_7951_607)"/>
<path opacity="0.24" d="M98.6949 5.08482C72.9008 27.4442 31.9 95.8249 74.2496 190.472C127.187 308.782 248.28 347.054 316.946 451.054C367.626 527.813 450.336 738.047 384.197 867.391" stroke="url(#paint23_linear_7951_607)"/>
<path opacity="0.24" d="M52.8179 28.495C27.0238 50.8544 -13.977 119.235 28.3727 213.882C81.3097 332.192 202.403 370.464 271.069 474.464C321.749 551.223 404.459 761.457 338.32 890.801" stroke="url(#paint24_linear_7951_607)"/>
<path opacity="0.24" d="M8.61283 54.9208C-17.1813 77.2802 -58.182 145.661 -15.8324 240.308C37.1047 358.618 158.198 396.89 226.864 500.89C277.544 577.649 360.254 787.882 294.115 917.227" stroke="url(#paint25_linear_7951_607)"/>
<path opacity="0.24" d="M-33.8383 84.0926C-59.6324 106.452 -100.633 174.833 -58.2836 269.48C-5.34651 387.789 115.747 426.062 184.413 530.062C235.093 606.821 317.802 817.054 251.664 946.399" stroke="url(#paint26_linear_7951_607)"/>
<path opacity="0.24" d="M-74.4653 115.749C-100.259 138.108 -141.26 206.489 -98.9105 301.136C-45.9735 419.446 75.12 457.718 143.786 561.718C194.466 638.477 277.176 848.711 211.037 978.055" stroke="url(#paint27_linear_7951_607)"/>
<path opacity="0.24" d="M-113.2 149.679C-138.994 172.038 -179.995 240.419 -137.645 335.066C-84.7078 453.375 36.3856 491.648 105.051 595.648C155.732 672.407 238.441 882.64 172.303 1011.98" stroke="url(#paint28_linear_7951_607)"/>
<defs>
<linearGradient id="paint0_linear_7951_607" x1="1075" y1="-529.54" x2="1416.35" y2="310.061" gradientUnits="userSpaceOnUse">
<stop stop-color="white" stop-opacity="0.87"/>
<stop offset="1" stop-color="white" stop-opacity="0.24"/>
</linearGradient>
<linearGradient id="paint1_linear_7951_607" x1="1044.29" y1="-488.196" x2="1385.64" y2="351.404" gradientUnits="userSpaceOnUse">
<stop stop-color="white" stop-opacity="0.87"/>
<stop offset="1" stop-color="white" stop-opacity="0.24"/>
</linearGradient>
<linearGradient id="paint2_linear_7951_607" x1="1012.54" y1="-447.646" x2="1353.89" y2="391.955" gradientUnits="userSpaceOnUse">
<stop stop-color="white" stop-opacity="0.87"/>
<stop offset="1" stop-color="white" stop-opacity="0.24"/>
</linearGradient>
<linearGradient id="paint3_linear_7951_607" x1="979.786" y1="-407.896" x2="1321.14" y2="431.705" gradientUnits="userSpaceOnUse">
<stop stop-color="white" stop-opacity="0.87"/>
<stop offset="1" stop-color="white" stop-opacity="0.24"/>
</linearGradient>
<linearGradient id="paint4_linear_7951_607" x1="946.024" y1="-369.001" x2="1287.37" y2="470.6" gradientUnits="userSpaceOnUse">
<stop stop-color="white" stop-opacity="0.87"/>
<stop offset="1" stop-color="white" stop-opacity="0.24"/>
</linearGradient>
<linearGradient id="paint5_linear_7951_607" x1="911.219" y1="-331.04" x2="1252.57" y2="508.561" gradientUnits="userSpaceOnUse">
<stop stop-color="white" stop-opacity="0.87"/>
<stop offset="1" stop-color="white" stop-opacity="0.24"/>
</linearGradient>
<linearGradient id="paint6_linear_7951_607" x1="875.313" y1="-294.11" x2="1216.66" y2="545.49" gradientUnits="userSpaceOnUse">
<stop stop-color="white" stop-opacity="0.87"/>
<stop offset="1" stop-color="white" stop-opacity="0.24"/>
</linearGradient>
<linearGradient id="paint7_linear_7951_607" x1="838.235" y1="-258.364" x2="1179.59" y2="581.236" gradientUnits="userSpaceOnUse">
<stop stop-color="white" stop-opacity="0.87"/>
<stop offset="1" stop-color="white" stop-opacity="0.24"/>
</linearGradient>
<linearGradient id="paint8_linear_7951_607" x1="799.895" y1="-223.97" x2="1141.25" y2="615.631" gradientUnits="userSpaceOnUse">
<stop stop-color="white" stop-opacity="0.87"/>
<stop offset="1" stop-color="white" stop-opacity="0.24"/>
</linearGradient>
<linearGradient id="paint9_linear_7951_607" x1="760.19" y1="-191.165" x2="1101.54" y2="648.436" gradientUnits="userSpaceOnUse">
<stop stop-color="white" stop-opacity="0.87"/>
<stop offset="1" stop-color="white" stop-opacity="0.24"/>
</linearGradient>
<linearGradient id="paint10_linear_7951_607" x1="719.001" y1="-160.247" x2="1060.35" y2="679.354" gradientUnits="userSpaceOnUse">
<stop stop-color="white" stop-opacity="0.87"/>
<stop offset="1" stop-color="white" stop-opacity="0.24"/>
</linearGradient>
<linearGradient id="paint11_linear_7951_607" x1="676.2" y1="-131.599" x2="1017.55" y2="708.002" gradientUnits="userSpaceOnUse">
<stop stop-color="white" stop-opacity="0.87"/>
<stop offset="1" stop-color="white" stop-opacity="0.24"/>
</linearGradient>
<linearGradient id="paint12_linear_7951_607" x1="631.663" y1="-105.728" x2="973.013" y2="733.873" gradientUnits="userSpaceOnUse">
<stop stop-color="white" stop-opacity="0.87"/>
<stop offset="1" stop-color="white" stop-opacity="0.24"/>
</linearGradient>
<linearGradient id="paint13_linear_7951_607" x1="585.301" y1="-83.298" x2="926.651" y2="756.303" gradientUnits="userSpaceOnUse">
<stop stop-color="white" stop-opacity="0.87"/>
<stop offset="1" stop-color="white" stop-opacity="0.24"/>
</linearGradient>
<linearGradient id="paint14_linear_7951_607" x1="537.094" y1="-65.1574" x2="878.444" y2="774.443" gradientUnits="userSpaceOnUse">
<stop stop-color="white" stop-opacity="0.87"/>
<stop offset="1" stop-color="white" stop-opacity="0.24"/>
</linearGradient>
<linearGradient id="paint15_linear_7951_607" x1="487.208" y1="-52.3605" x2="828.558" y2="787.24" gradientUnits="userSpaceOnUse">
<stop stop-color="white" stop-opacity="0.87"/>
<stop offset="1" stop-color="white" stop-opacity="0.24"/>
</linearGradient>
<linearGradient id="paint16_linear_7951_607" x1="436.083" y1="-46.1027" x2="777.433" y2="793.498" gradientUnits="userSpaceOnUse">
<stop stop-color="white" stop-opacity="0.87"/>
<stop offset="1" stop-color="white" stop-opacity="0.24"/>
</linearGradient>
<linearGradient id="paint17_linear_7951_607" x1="375.309" y1="-47.6456" x2="716.659" y2="791.955" gradientUnits="userSpaceOnUse">
<stop stop-color="white" stop-opacity="0.87"/>
<stop offset="1" stop-color="white" stop-opacity="0.24"/>
</linearGradient>
<linearGradient id="paint18_linear_7951_607" x1="323.803" y1="-47.5714" x2="665.153" y2="792.029" gradientUnits="userSpaceOnUse">
<stop stop-color="white" stop-opacity="0.87"/>
<stop offset="1" stop-color="white" stop-opacity="0.24"/>
</linearGradient>
<linearGradient id="paint19_linear_7951_607" x1="272.481" y1="-43.2472" x2="613.831" y2="796.354" gradientUnits="userSpaceOnUse">
<stop stop-color="white" stop-opacity="0.87"/>
<stop offset="1" stop-color="white" stop-opacity="0.24"/>
</linearGradient>
<linearGradient id="paint20_linear_7951_607" x1="221.69" y1="-34.7042" x2="563.04" y2="804.896" gradientUnits="userSpaceOnUse">
<stop stop-color="white" stop-opacity="0.87"/>
<stop offset="1" stop-color="white" stop-opacity="0.24"/>
</linearGradient>
<linearGradient id="paint21_linear_7951_607" x1="171.754" y1="-22.0871" x2="513.105" y2="817.514" gradientUnits="userSpaceOnUse">
<stop stop-color="white" stop-opacity="0.87"/>
<stop offset="1" stop-color="white" stop-opacity="0.24"/>
</linearGradient>
<linearGradient id="paint22_linear_7951_607" x1="122.963" y1="-5.59486" x2="464.314" y2="834.006" gradientUnits="userSpaceOnUse">
<stop stop-color="white" stop-opacity="0.87"/>
<stop offset="1" stop-color="white" stop-opacity="0.24"/>
</linearGradient>
<linearGradient id="paint23_linear_7951_607" x1="75.5396" y1="14.4989" x2="416.89" y2="854.1" gradientUnits="userSpaceOnUse">
<stop stop-color="white" stop-opacity="0.87"/>
<stop offset="1" stop-color="white" stop-opacity="0.24"/>
</linearGradient>
<linearGradient id="paint24_linear_7951_607" x1="29.6626" y1="37.909" x2="371.013" y2="877.51" gradientUnits="userSpaceOnUse">
<stop stop-color="white" stop-opacity="0.87"/>
<stop offset="1" stop-color="white" stop-opacity="0.24"/>
</linearGradient>
<linearGradient id="paint25_linear_7951_607" x1="-14.5424" y1="64.3348" x2="326.808" y2="903.936" gradientUnits="userSpaceOnUse">
<stop stop-color="white" stop-opacity="0.87"/>
<stop offset="1" stop-color="white" stop-opacity="0.24"/>
</linearGradient>
<linearGradient id="paint26_linear_7951_607" x1="-56.9936" y1="93.5067" x2="284.357" y2="933.107" gradientUnits="userSpaceOnUse">
<stop stop-color="white" stop-opacity="0.87"/>
<stop offset="1" stop-color="white" stop-opacity="0.24"/>
</linearGradient>
<linearGradient id="paint27_linear_7951_607" x1="-97.6206" y1="125.163" x2="243.73" y2="964.764" gradientUnits="userSpaceOnUse">
<stop stop-color="white" stop-opacity="0.87"/>
<stop offset="1" stop-color="white" stop-opacity="0.24"/>
</linearGradient>
<linearGradient id="paint28_linear_7951_607" x1="-136.355" y1="159.093" x2="204.995" y2="998.693" gradientUnits="userSpaceOnUse">
<stop stop-color="white" stop-opacity="0.87"/>
<stop offset="1" stop-color="white" stop-opacity="0.24"/>
</linearGradient>
</defs>
</svg>
