<svg width="115" height="28" viewBox="0 0 115 28" fill="none" xmlns="http://www.w3.org/2000/svg">
<path d="M24.8842 1.96289L28 7.34094L24.8842 12.719H18.6525L15.5366 7.34094L18.6525 1.96289L24.8842 1.96289Z" fill="black"/>
<path d="M9.34756 1.96289L20.189 20.658L17.0732 26.0361H10.8415L0 7.34094L3.11585 1.96289L9.34756 1.96289Z" fill="black"/>
<path d="M42.8693 6.45455L46.9176 18.3011H47.081L51.1293 6.45455H53.5014L48.267 21H45.7315L40.4972 6.45455H42.8693ZM59.0394 21.2202C57.9646 21.2202 57.0389 20.9905 56.2624 20.5312C55.4906 20.0672 54.8941 19.4162 54.4727 18.5781C54.056 17.7353 53.8477 16.7481 53.8477 15.6165C53.8477 14.4991 54.056 13.5142 54.4727 12.6619C54.8941 11.8097 55.4812 11.1444 56.234 10.6662C56.9916 10.188 57.877 9.94886 58.8903 9.94886C59.5058 9.94886 60.1024 10.0507 60.68 10.2543C61.2577 10.4579 61.7762 10.7775 62.2354 11.2131C62.6947 11.6487 63.0569 12.2145 63.3221 12.9105C63.5872 13.6018 63.7198 14.4422 63.7198 15.4318V16.1847H55.0479V14.5938H61.6388C61.6388 14.035 61.5252 13.5402 61.2979 13.1094C61.0707 12.6738 60.7511 12.3305 60.3391 12.0795C59.9319 11.8286 59.4537 11.7031 58.9045 11.7031C58.3079 11.7031 57.7871 11.8499 57.342 12.1435C56.9016 12.4323 56.5607 12.8111 56.3192 13.2798C56.0825 13.7438 55.9641 14.2481 55.9641 14.7926V16.0355C55.9641 16.7647 56.092 17.3849 56.3477 17.8963C56.6081 18.4077 56.9703 18.7983 57.4343 19.0682C57.8983 19.3333 58.4405 19.4659 59.0607 19.4659C59.4632 19.4659 59.8301 19.4091 60.1616 19.2955C60.493 19.1771 60.7795 19.0019 61.021 18.7699C61.2624 18.5379 61.4471 18.2514 61.5749 17.9105L63.5849 18.2727C63.4239 18.8646 63.1351 19.383 62.7184 19.8281C62.3065 20.2685 61.788 20.6117 61.163 20.858C60.5427 21.0994 59.8349 21.2202 59.0394 21.2202ZM68.1996 14.5227V21H66.076V10.0909H68.1143V11.8665H68.2493C68.5002 11.2888 68.8932 10.8248 69.4283 10.4744C69.968 10.1241 70.6475 9.94886 71.4666 9.94886C72.21 9.94886 72.861 10.1051 73.4197 10.4176C73.9785 10.7254 74.4117 11.1847 74.7195 11.7955C75.0272 12.4062 75.1811 13.1615 75.1811 14.0611V21H73.0575V14.3168C73.0575 13.526 72.8516 12.9081 72.4396 12.4631C72.0277 12.0133 71.4619 11.7884 70.7422 11.7884C70.2498 11.7884 69.8118 11.8949 69.4283 12.108C69.0495 12.321 68.7488 12.6335 68.5263 13.0455C68.3085 13.4527 68.1996 13.9451 68.1996 14.5227ZM83.1214 10.0909V11.7955H77.1626V10.0909H83.1214ZM78.7607 7.47727H80.8842V17.7969C80.8842 18.2088 80.9458 18.5189 81.0689 18.7273C81.192 18.9309 81.3506 19.0705 81.5447 19.1463C81.7436 19.2173 81.959 19.2528 82.1911 19.2528C82.3615 19.2528 82.5107 19.241 82.6385 19.2173C82.7663 19.1937 82.8658 19.1747 82.9368 19.1605L83.3203 20.9148C83.1972 20.9621 83.022 21.0095 82.7947 21.0568C82.5675 21.1089 82.2834 21.1373 81.9425 21.142C81.3838 21.1515 80.8629 21.0521 80.38 20.8438C79.897 20.6354 79.5064 20.3134 79.2081 19.8778C78.9098 19.4422 78.7607 18.8954 78.7607 18.2372V7.47727ZM92.381 16.4759V10.0909H94.5117V21H92.4237V19.1108H92.31C92.0591 19.6932 91.6566 20.1785 91.1026 20.5668C90.5534 20.9503 89.8692 21.142 89.0501 21.142C88.3493 21.142 87.729 20.9882 87.1893 20.6804C86.6542 20.3679 86.2328 19.9062 85.9251 19.2955C85.622 18.6847 85.4705 17.9295 85.4705 17.0298V10.0909H87.5941V16.7741C87.5941 17.5175 87.8001 18.1094 88.212 18.5497C88.6239 18.9901 89.159 19.2102 89.8171 19.2102C90.2148 19.2102 90.6102 19.1108 91.0032 18.9119C91.4009 18.7131 91.73 18.4124 91.9904 18.0099C92.2556 17.6075 92.3858 17.0961 92.381 16.4759ZM97.3651 21V10.0909H99.4176V11.8239H99.5312C99.7301 11.2367 100.08 10.7751 100.582 10.4389C101.089 10.098 101.662 9.92756 102.301 9.92756C102.434 9.92756 102.59 9.93229 102.77 9.94176C102.955 9.95123 103.099 9.96307 103.203 9.97727V12.0085C103.118 11.9848 102.966 11.9588 102.749 11.9304C102.531 11.8973 102.313 11.8807 102.095 11.8807C101.593 11.8807 101.146 11.9872 100.753 12.2003C100.365 12.4086 100.057 12.6998 99.8295 13.0739C99.6023 13.4432 99.4886 13.8646 99.4886 14.3381V21H97.3651ZM109.352 21.2202C108.277 21.2202 107.351 20.9905 106.575 20.5312C105.803 20.0672 105.207 19.4162 104.785 18.5781C104.368 17.7353 104.16 16.7481 104.16 15.6165C104.16 14.4991 104.368 13.5142 104.785 12.6619C105.207 11.8097 105.794 11.1444 106.547 10.6662C107.304 10.188 108.19 9.94886 109.203 9.94886C109.818 9.94886 110.415 10.0507 110.993 10.2543C111.57 10.4579 112.089 10.7775 112.548 11.2131C113.007 11.6487 113.369 12.2145 113.635 12.9105C113.9 13.6018 114.032 14.4422 114.032 15.4318V16.1847H105.36V14.5938H111.951C111.951 14.035 111.838 13.5402 111.61 13.1094C111.383 12.6738 111.064 12.3305 110.652 12.0795C110.244 11.8286 109.766 11.7031 109.217 11.7031C108.62 11.7031 108.1 11.8499 107.654 12.1435C107.214 12.4323 106.873 12.8111 106.632 13.2798C106.395 13.7438 106.277 14.2481 106.277 14.7926V16.0355C106.277 16.7647 106.404 17.3849 106.66 17.8963C106.921 18.4077 107.283 18.7983 107.747 19.0682C108.211 19.3333 108.753 19.4659 109.373 19.4659C109.776 19.4659 110.143 19.4091 110.474 19.2955C110.806 19.1771 111.092 19.0019 111.333 18.7699C111.575 18.5379 111.76 18.2514 111.887 17.9105L113.897 18.2727C113.736 18.8646 113.448 19.383 113.031 19.8281C112.619 20.2685 112.1 20.6117 111.475 20.858C110.855 21.0994 110.147 21.2202 109.352 21.2202Z" fill="black"/>
</svg>
